<?xml version="1.0" encoding="UTF-8" standalone="no"?>
<!-- Created with Inkscape (http://www.inkscape.org/) -->

<svg
   xmlns:dc="http://purl.org/dc/elements/1.1/"
   xmlns:cc="http://creativecommons.org/ns#"
   xmlns:rdf="http://www.w3.org/1999/02/22-rdf-syntax-ns#"
   xmlns:svg="http://www.w3.org/2000/svg"
   xmlns="http://www.w3.org/2000/svg"
   xmlns:sodipodi="http://sodipodi.sourceforge.net/DTD/sodipodi-0.dtd"
   xmlns:inkscape="http://www.inkscape.org/namespaces/inkscape"
   width="254.42024mm"
   height="184.40317mm"
   viewBox="0 0 254.42024 184.40317"
   version="1.1"
   id="svg8"
   inkscape:version="0.92.4 (5da689c313, 2019-01-14)"
   sodipodi:docname="Faux Neon 7 Segment Clock_V4_P01.svg">
  <defs
     id="defs2" />
  <sodipodi:namedview
     id="base"
     pagecolor="#ffffff"
     bordercolor="#666666"
     borderopacity="1.0"
     inkscape:pageopacity="0.0"
     inkscape:pageshadow="2"
     inkscape:zoom="0.35"
     inkscape:cx="-493.41567"
     inkscape:cy="631.1709"
     inkscape:document-units="mm"
     inkscape:current-layer="layer1"
     showgrid="false"
     inkscape:window-width="1920"
     inkscape:window-height="1027"
     inkscape:window-x="-8"
     inkscape:window-y="-8"
     inkscape:window-maximized="1"
     fit-margin-top="0"
     fit-margin-left="0"
     fit-margin-right="0"
     fit-margin-bottom="0" />
  <metadata
     id="metadata5">
    <rdf:RDF>
      <cc:Work
         rdf:about="">
        <dc:format>image/svg+xml</dc:format>
        <dc:type
           rdf:resource="http://purl.org/dc/dcmitype/StillImage" />
        <dc:title></dc:title>
      </cc:Work>
    </rdf:RDF>
  </metadata>
  <g
     inkscape:label="Layer 1"
     inkscape:groupmode="layer"
     id="layer1"
     transform="translate(-187.1528,-153.46969)">
    <g
       id="g6074"
       transform="translate(-346.69343,788.18965)">
      <g
         id="g2783"
         transform="translate(954.42402,-482.74188)">
        <path
           inkscape:connector-curvature="0"
           style="fill:none;fill-opacity:1;stroke:#ff0000;stroke-width:0.20467696;stroke-miterlimit:4;stroke-dasharray:none;stroke-dashoffset:0;stroke-opacity:1"
           d="m -271.16431,-65.50461 a 2.9976614,2.9976617 0 0 1 -2.99724,-2.99723 2.9976614,2.9976617 0 0 1 1.12603,-2.33836 v -59.34987 a 2.9976614,2.9976617 0 0 1 -1.12603,-2.34094 2.9976614,2.9976617 0 0 1 2.99724,-2.99775 2.9976614,2.9976617 0 0 1 2.99775,2.99775 2.9976614,2.9976617 0 0 1 -1.19786,2.3921 v 59.24341 a 2.9976614,2.9976617 0 0 1 1.19786,2.39366 2.9976614,2.9976617 0 0 1 -2.99775,2.99723 z"
           id="path2779" />
        <path
           id="path2781"
           transform="scale(0.26458333)"
           d="m -1024.9746,-533.2168 -16.7266,16.78711 -16.6035,16.66211 h -0.2598 v 240.33399 h 0.2637 l 16.5488,16.60742 16.7286,16.78906 16.8593,-16.74414 16.76762,-16.65234 h 0.26953 v -240.33399 h -0.16407 l -16.82418,-16.70703 z"
           style="fill:none;fill-opacity:1;stroke:#0000ff;stroke-width:0.37680149;stroke-miterlimit:4;stroke-dasharray:none;stroke-dashoffset:0;stroke-opacity:1"
           inkscape:connector-curvature="0" />
      </g>
      <path
         inkscape:connector-curvature="0"
         style="fill:none;fill-opacity:1;stroke:#ff0000;stroke-width:0.20467696;stroke-miterlimit:4;stroke-dasharray:none;stroke-dashoffset:0;stroke-opacity:1"
         d="m 758.91392,-623.81751 a 2.9976617,2.9976614 0 0 1 -2.99723,2.99724 2.9976617,2.9976614 0 0 1 -2.33836,-1.12603 h -59.34987 a 2.9976617,2.9976614 0 0 1 -2.34094,1.12603 2.9976617,2.9976614 0 0 1 -2.99775,-2.99724 2.9976617,2.9976614 0 0 1 2.99775,-2.99775 2.9976617,2.9976614 0 0 1 2.3921,1.19786 h 59.24341 a 2.9976617,2.9976614 0 0 1 2.39366,-1.19786 2.9976617,2.9976614 0 0 1 2.99723,2.99775 z"
         id="path2785" />
      <path
         id="path2787"
         d="m 683.33825,-623.79063 4.44159,4.42558 4.40852,4.39301 v 0.0687 h 63.58837 v -0.0698 l 4.39404,-4.37854 4.44211,-4.42611 -4.43022,-4.46069 -4.40593,-4.43643 v -0.0713 h -63.58837 v 0.0434 l -4.4204,4.4514 z"
         style="fill:none;fill-opacity:1;stroke:#0000ff;stroke-width:0.09969539;stroke-miterlimit:4;stroke-dasharray:none;stroke-dashoffset:0;stroke-opacity:1"
         inkscape:connector-curvature="0" />
      <g
         id="g2795"
         transform="rotate(-90,5.3041367,-819.05532)">
        <path
           inkscape:connector-curvature="0"
           style="fill:none;fill-opacity:1;stroke:#ff0000;stroke-width:0.20467696;stroke-miterlimit:4;stroke-dasharray:none;stroke-dashoffset:0;stroke-opacity:1"
           d="m -271.16431,-65.50461 a 2.9976614,2.9976617 0 0 1 -2.99724,-2.99723 2.9976614,2.9976617 0 0 1 1.12603,-2.33836 v -59.34987 a 2.9976614,2.9976617 0 0 1 -1.12603,-2.34094 2.9976614,2.9976617 0 0 1 2.99724,-2.99775 2.9976614,2.9976617 0 0 1 2.99775,2.99775 2.9976614,2.9976617 0 0 1 -1.19786,2.3921 v 59.24341 a 2.9976614,2.9976617 0 0 1 1.19786,2.39366 2.9976614,2.9976617 0 0 1 -2.99775,2.99723 z"
           id="path2791" />
        <path
           id="path2793"
           transform="scale(0.26458333)"
           d="m -1024.9746,-533.2168 -16.7266,16.78711 -16.6035,16.66211 h -0.2598 v 240.33399 h 0.2637 l 16.5488,16.60742 16.7286,16.78906 16.8593,-16.74414 16.76762,-16.65234 h 0.26953 v -240.33399 h -0.16407 l -16.82418,-16.70703 z"
           style="fill:none;fill-opacity:1;stroke:#0000ff;stroke-width:0.37680149;stroke-miterlimit:4;stroke-dasharray:none;stroke-dashoffset:0;stroke-opacity:1"
           inkscape:connector-curvature="0" />
      </g>
      <g
         transform="rotate(-90,45.880247,-778.42045)"
         id="g2801">
        <path
           id="path2797"
           d="m -271.16431,-65.50461 a 2.9976614,2.9976617 0 0 1 -2.99724,-2.99723 2.9976614,2.9976617 0 0 1 1.12603,-2.33836 v -59.34987 a 2.9976614,2.9976617 0 0 1 -1.12603,-2.34094 2.9976614,2.9976617 0 0 1 2.99724,-2.99775 2.9976614,2.9976617 0 0 1 2.99775,2.99775 2.9976614,2.9976617 0 0 1 -1.19786,2.3921 v 59.24341 a 2.9976614,2.9976617 0 0 1 1.19786,2.39366 2.9976614,2.9976617 0 0 1 -2.99775,2.99723 z"
           style="fill:none;fill-opacity:1;stroke:#ff0000;stroke-width:0.20467696;stroke-miterlimit:4;stroke-dasharray:none;stroke-dashoffset:0;stroke-opacity:1"
           inkscape:connector-curvature="0" />
        <path
           inkscape:connector-curvature="0"
           style="fill:none;fill-opacity:1;stroke:#0000ff;stroke-width:0.37680149;stroke-miterlimit:4;stroke-dasharray:none;stroke-dashoffset:0;stroke-opacity:1"
           d="m -1024.9746,-533.2168 -16.7266,16.78711 -16.6035,16.66211 h -0.2598 v 240.33399 h 0.2637 l 16.5488,16.60742 16.7286,16.78906 16.8593,-16.74414 16.76762,-16.65234 h 0.26953 v -240.33399 h -0.16407 l -16.82418,-16.70703 z"
           transform="scale(0.26458333)"
           id="path2799" />
      </g>
      <g
         transform="translate(954.42402,-401.53085)"
         id="g2807">
        <path
           id="path2803"
           d="m -271.16431,-65.50461 a 2.9976614,2.9976617 0 0 1 -2.99724,-2.99723 2.9976614,2.9976617 0 0 1 1.12603,-2.33836 v -59.34987 a 2.9976614,2.9976617 0 0 1 -1.12603,-2.34094 2.9976614,2.9976617 0 0 1 2.99724,-2.99775 2.9976614,2.9976617 0 0 1 2.99775,2.99775 2.9976614,2.9976617 0 0 1 -1.19786,2.3921 v 59.24341 a 2.9976614,2.9976617 0 0 1 1.19786,2.39366 2.9976614,2.9976617 0 0 1 -2.99775,2.99723 z"
           style="fill:none;fill-opacity:1;stroke:#ff0000;stroke-width:0.20467696;stroke-miterlimit:4;stroke-dasharray:none;stroke-dashoffset:0;stroke-opacity:1"
           inkscape:connector-curvature="0" />
        <path
           inkscape:connector-curvature="0"
           style="fill:none;fill-opacity:1;stroke:#0000ff;stroke-width:0.37680149;stroke-miterlimit:4;stroke-dasharray:none;stroke-dashoffset:0;stroke-opacity:1"
           d="m -1024.9746,-533.2168 -16.7266,16.78711 -16.6035,16.66211 h -0.2598 v 240.33399 h 0.2637 l 16.5488,16.60742 16.7286,16.78906 16.8593,-16.74414 16.76762,-16.65234 h 0.26953 v -240.33399 h -0.16407 l -16.82418,-16.70703 z"
           transform="scale(0.26458333)"
           id="path2805" />
      </g>
      <path
         id="path2809"
         d="m 764.56429,-466.97401 a 2.9976614,2.9976617 0 0 1 -2.99724,-2.99723 2.9976614,2.9976617 0 0 1 1.12603,-2.33836 v -59.34987 a 2.9976614,2.9976617 0 0 1 -1.12603,-2.34094 2.9976614,2.9976617 0 0 1 2.99724,-2.99775 2.9976614,2.9976617 0 0 1 2.99775,2.99775 2.9976614,2.9976617 0 0 1 -1.19786,2.3921 v 59.24341 a 2.9976614,2.9976617 0 0 1 1.19786,2.39366 2.9976614,2.9976617 0 0 1 -2.99775,2.99723 z"
         style="fill:none;fill-opacity:1;stroke:#ff0000;stroke-width:0.20467696;stroke-miterlimit:4;stroke-dasharray:none;stroke-dashoffset:0;stroke-opacity:1"
         inkscape:connector-curvature="0" />
      <path
         inkscape:connector-curvature="0"
         style="fill:none;fill-opacity:1;stroke:#0000ff;stroke-width:0.09969539;stroke-miterlimit:4;stroke-dasharray:none;stroke-dashoffset:0;stroke-opacity:1"
         d="m 764.53741,-542.54968 -4.42558,4.44159 -4.39301,4.40852 h -0.0687 v 63.58837 h 0.0698 l 4.37854,4.39404 4.42611,4.44211 4.46069,-4.43022 4.43643,-4.40593 h 0.0713 v -63.58837 h -0.0434 l -4.4514,-4.4204 z"
         id="path2811" />
      <g
         transform="translate(1035.7901,-482.68044)"
         id="g2819">
        <path
           id="path2815"
           d="m -271.16431,-65.50461 a 2.9976614,2.9976617 0 0 1 -2.99724,-2.99723 2.9976614,2.9976617 0 0 1 1.12603,-2.33836 v -59.34987 a 2.9976614,2.9976617 0 0 1 -1.12603,-2.34094 2.9976614,2.9976617 0 0 1 2.99724,-2.99775 2.9976614,2.9976617 0 0 1 2.99775,2.99775 2.9976614,2.9976617 0 0 1 -1.19786,2.3921 v 59.24341 a 2.9976614,2.9976617 0 0 1 1.19786,2.39366 2.9976614,2.9976617 0 0 1 -2.99775,2.99723 z"
           style="fill:none;fill-opacity:1;stroke:#ff0000;stroke-width:0.20467696;stroke-miterlimit:4;stroke-dasharray:none;stroke-dashoffset:0;stroke-opacity:1"
           inkscape:connector-curvature="0" />
        <path
           inkscape:connector-curvature="0"
           style="fill:none;fill-opacity:1;stroke:#0000ff;stroke-width:0.37680149;stroke-miterlimit:4;stroke-dasharray:none;stroke-dashoffset:0;stroke-opacity:1"
           d="m -1024.9746,-533.2168 -16.7266,16.78711 -16.6035,16.66211 h -0.2598 v 240.33399 h 0.2637 l 16.5488,16.60742 16.7286,16.78906 16.8593,-16.74414 16.76762,-16.65234 h 0.26953 v -240.33399 h -0.16407 l -16.82418,-16.70703 z"
           transform="scale(0.26458333)"
           id="path2817" />
      </g>
      <path
         inkscape:connector-curvature="0"
         style="fill:none;fill-opacity:1;stroke:#ff0000;stroke-width:0.20467696;stroke-miterlimit:4;stroke-dasharray:none;stroke-dashoffset:0;stroke-opacity:1"
         d="m 567.90144,-548.24617 a 2.9976614,2.9976617 0 0 1 -2.99724,-2.99723 2.9976614,2.9976617 0 0 1 1.12603,-2.33836 v -59.34987 a 2.9976614,2.9976617 0 0 1 -1.12603,-2.34094 2.9976614,2.9976617 0 0 1 2.99724,-2.99775 2.9976614,2.9976617 0 0 1 2.99775,2.99775 2.9976614,2.9976617 0 0 1 -1.19786,2.3921 v 59.24341 a 2.9976614,2.9976617 0 0 1 1.19786,2.39366 2.9976614,2.9976617 0 0 1 -2.99775,2.99723 z"
         id="path2821" />
      <path
         id="path2823"
         d="m 567.87456,-623.82184 -4.42558,4.44159 -4.39301,4.40852 h -0.0687 v 63.58837 h 0.0698 l 4.37854,4.39404 4.42611,4.44211 4.46069,-4.43022 4.43643,-4.40593 h 0.0713 v -63.58837 h -0.0434 l -4.4514,-4.4204 z"
         style="fill:none;fill-opacity:1;stroke:#0000ff;stroke-width:0.09969539;stroke-miterlimit:4;stroke-dasharray:none;stroke-dashoffset:0;stroke-opacity:1"
         inkscape:connector-curvature="0" />
      <path
         id="path2827"
         d="m 643.55552,-623.81769 a 2.9976617,2.9976614 0 0 1 -2.99723,2.99724 2.9976617,2.9976614 0 0 1 -2.33836,-1.12603 h -59.34987 a 2.9976617,2.9976614 0 0 1 -2.34094,1.12603 2.9976617,2.9976614 0 0 1 -2.99775,-2.99724 2.9976617,2.9976614 0 0 1 2.99775,-2.99775 2.9976617,2.9976614 0 0 1 2.3921,1.19786 h 59.24341 a 2.9976617,2.9976614 0 0 1 2.39366,-1.19786 2.9976617,2.9976614 0 0 1 2.99723,2.99775 z"
         style="fill:none;fill-opacity:1;stroke:#ff0000;stroke-width:0.20467696;stroke-miterlimit:4;stroke-dasharray:none;stroke-dashoffset:0;stroke-opacity:1"
         inkscape:connector-curvature="0" />
      <path
         inkscape:connector-curvature="0"
         style="fill:none;fill-opacity:1;stroke:#0000ff;stroke-width:0.09969539;stroke-miterlimit:4;stroke-dasharray:none;stroke-dashoffset:0;stroke-opacity:1"
         d="m 567.97985,-623.79081 4.44159,4.42558 4.40852,4.39301 v 0.0687 h 63.58837 v -0.0698 l 4.39404,-4.37854 4.44211,-4.42611 -4.43022,-4.46069 -4.40593,-4.43643 v -0.0713 h -63.58837 v 0.0434 l -4.4204,4.4514 z"
         id="path2829" />
      <path
         inkscape:connector-curvature="0"
         style="fill:none;fill-opacity:1;stroke:#ff0000;stroke-width:0.20467696;stroke-miterlimit:4;stroke-dasharray:none;stroke-dashoffset:0;stroke-opacity:1"
         d="m 643.49644,-542.58697 a 2.9976617,2.9976614 0 0 1 -2.99723,2.99724 2.9976617,2.9976614 0 0 1 -2.33836,-1.12603 h -59.34987 a 2.9976617,2.9976614 0 0 1 -2.34094,1.12603 2.9976617,2.9976614 0 0 1 -2.99775,-2.99724 2.9976617,2.9976614 0 0 1 2.99775,-2.99775 2.9976617,2.9976614 0 0 1 2.3921,1.19786 h 59.24341 a 2.9976617,2.9976614 0 0 1 2.39366,-1.19786 2.9976617,2.9976614 0 0 1 2.99723,2.99775 z"
         id="path2833" />
      <path
         id="path2835"
         d="m 567.92077,-542.56009 4.44159,4.42558 4.40852,4.39301 v 0.0687 h 63.58837 v -0.0698 l 4.39404,-4.37854 4.44211,-4.42611 -4.43022,-4.46069 -4.40593,-4.43643 v -0.0713 h -63.58837 v 0.0434 l -4.4204,4.4514 z"
         style="fill:none;fill-opacity:1;stroke:#0000ff;stroke-width:0.09969539;stroke-miterlimit:4;stroke-dasharray:none;stroke-dashoffset:0;stroke-opacity:1"
         inkscape:connector-curvature="0" />
      <path
         id="path2839"
         d="m 643.43769,-461.3759 a 2.9976617,2.9976614 0 0 1 -2.99723,2.99724 2.9976617,2.9976614 0 0 1 -2.33836,-1.12603 h -59.34987 a 2.9976617,2.9976614 0 0 1 -2.34094,1.12603 2.9976617,2.9976614 0 0 1 -2.99775,-2.99724 2.9976617,2.9976614 0 0 1 2.99775,-2.99775 2.9976617,2.9976614 0 0 1 2.3921,1.19786 h 59.24341 a 2.9976617,2.9976614 0 0 1 2.39366,-1.19786 2.9976617,2.9976614 0 0 1 2.99723,2.99775 z"
         style="fill:none;fill-opacity:1;stroke:#ff0000;stroke-width:0.20467696;stroke-miterlimit:4;stroke-dasharray:none;stroke-dashoffset:0;stroke-opacity:1"
         inkscape:connector-curvature="0" />
      <path
         inkscape:connector-curvature="0"
         style="fill:none;fill-opacity:1;stroke:#0000ff;stroke-width:0.09969539;stroke-miterlimit:4;stroke-dasharray:none;stroke-dashoffset:0;stroke-opacity:1"
         d="m 567.86202,-461.34902 4.44159,4.42558 4.40852,4.39301 v 0.0687 h 63.58837 v -0.0698 l 4.39404,-4.37854 4.44211,-4.42611 -4.43022,-4.46069 -4.40593,-4.43643 v -0.0713 h -63.58837 v 0.0434 l -4.4204,4.4514 z"
         id="path2841" />
      <path
         id="path2845"
         d="m 567.90144,-467.03508 a 2.9976614,2.9976617 0 0 1 -2.99724,-2.99723 2.9976614,2.9976617 0 0 1 1.12603,-2.33836 v -59.34987 a 2.9976614,2.9976617 0 0 1 -1.12603,-2.34094 2.9976614,2.9976617 0 0 1 2.99724,-2.99775 2.9976614,2.9976617 0 0 1 2.99775,2.99775 2.9976614,2.9976617 0 0 1 -1.19786,2.3921 v 59.24341 a 2.9976614,2.9976617 0 0 1 1.19786,2.39366 2.9976614,2.9976617 0 0 1 -2.99775,2.99723 z"
         style="fill:none;fill-opacity:1;stroke:#ff0000;stroke-width:0.20467696;stroke-miterlimit:4;stroke-dasharray:none;stroke-dashoffset:0;stroke-opacity:1"
         inkscape:connector-curvature="0" />
      <path
         inkscape:connector-curvature="0"
         style="fill:none;fill-opacity:1;stroke:#0000ff;stroke-width:0.09969539;stroke-miterlimit:4;stroke-dasharray:none;stroke-dashoffset:0;stroke-opacity:1"
         d="m 567.87456,-542.61075 -4.42558,4.44159 -4.39301,4.40852 h -0.0687 v 63.58837 h 0.0698 l 4.37854,4.39404 4.42611,4.44211 4.46069,-4.43022 4.43643,-4.40593 h 0.0713 v -63.58837 h -0.0434 l -4.4514,-4.4204 z"
         id="path2847" />
      <path
         inkscape:connector-curvature="0"
         style="fill:none;fill-opacity:1;stroke:#ff0000;stroke-width:0.20467696;stroke-miterlimit:4;stroke-dasharray:none;stroke-dashoffset:0;stroke-opacity:1"
         d="m 649.20602,-466.97364 a 2.9976614,2.9976617 0 0 1 -2.99724,-2.99723 2.9976614,2.9976617 0 0 1 1.12603,-2.33836 v -59.34987 a 2.9976614,2.9976617 0 0 1 -1.12603,-2.34094 2.9976614,2.9976617 0 0 1 2.99724,-2.99775 2.9976614,2.9976617 0 0 1 2.99775,2.99775 2.9976614,2.9976617 0 0 1 -1.19786,2.3921 v 59.24341 a 2.9976614,2.9976617 0 0 1 1.19786,2.39366 2.9976614,2.9976617 0 0 1 -2.99775,2.99723 z"
         id="path2851" />
      <path
         id="path2853"
         d="m 649.17914,-542.54931 -4.42558,4.44159 -4.39301,4.40852 h -0.0687 v 63.58837 h 0.0698 l 4.37854,4.39404 4.42611,4.44211 4.46069,-4.43022 4.43643,-4.40593 h 0.0713 v -63.58837 h -0.0434 l -4.4514,-4.4204 z"
         style="fill:none;fill-opacity:1;stroke:#0000ff;stroke-width:0.09969539;stroke-miterlimit:4;stroke-dasharray:none;stroke-dashoffset:0;stroke-opacity:1"
         inkscape:connector-curvature="0" />
      <path
         id="path2857"
         d="m 649.26749,-548.18472 a 2.9976614,2.9976617 0 0 1 -2.99724,-2.99723 2.9976614,2.9976617 0 0 1 1.12603,-2.33836 v -59.34987 a 2.9976614,2.9976617 0 0 1 -1.12603,-2.34094 2.9976614,2.9976617 0 0 1 2.99724,-2.99775 2.9976614,2.9976617 0 0 1 2.99775,2.99775 2.9976614,2.9976617 0 0 1 -1.19786,2.3921 v 59.24341 a 2.9976614,2.9976617 0 0 1 1.19786,2.39366 2.9976614,2.9976617 0 0 1 -2.99775,2.99723 z"
         style="fill:none;fill-opacity:1;stroke:#ff0000;stroke-width:0.20467696;stroke-miterlimit:4;stroke-dasharray:none;stroke-dashoffset:0;stroke-opacity:1"
         inkscape:connector-curvature="0" />
      <path
         inkscape:connector-curvature="0"
         style="fill:none;fill-opacity:1;stroke:#0000ff;stroke-width:0.09969539;stroke-miterlimit:4;stroke-dasharray:none;stroke-dashoffset:0;stroke-opacity:1"
         d="m 649.24061,-623.76039 -4.42558,4.44159 -4.39301,4.40852 h -0.0687 v 63.58837 h 0.0698 l 4.37854,4.39404 4.42611,4.44211 4.46069,-4.43022 4.43643,-4.40593 h 0.0713 v -63.58837 h -0.0434 l -4.4514,-4.4204 z"
         id="path2859" />
      <path
         sodipodi:nodetypes="cccscc"
         id="path2961"
         style="fill:none;stroke:#000000;stroke-width:0.2;stroke-linecap:butt;stroke-linejoin:miter;stroke-miterlimit:10;stroke-opacity:1"
         d="m 534.06481,-634.61996 -0.11845,92.15268 16.78451,-0.0496 v 91.99655 c 0,0.0547 -0.043,0.10157 -0.10156,0.10157 v 0"
         inkscape:connector-curvature="0" />
      <path
         inkscape:connector-curvature="0"
         d="m 534.06481,-634.61996 h 254.00004 c 0.0547,0 0.10156,0.043 0.10156,0.10156 v 0 m -0.10156,0"
         style="fill:none;stroke:#000000;stroke-width:0.2;stroke-linecap:butt;stroke-linejoin:miter;stroke-miterlimit:10;stroke-opacity:1"
         id="path2975" />
      <path
         inkscape:connector-curvature="0"
         d="m 779.73281,-624.78399 c 1.86719,0 1.86719,-2.80078 0,-2.80078 -1.86719,0 -1.86719,2.80078 0,2.80078"
         style="fill:none;stroke:#ff0000;stroke-width:0.2;stroke-linecap:butt;stroke-linejoin:miter;stroke-miterlimit:10;stroke-opacity:1"
         id="path2977" />
      <path
         inkscape:connector-curvature="0"
         d="m 788.16647,-634.51835 v 183.99999 c 0,0.0547 -0.043,0.10157 -0.10156,0.10157 v 0 m 0,-0.10157"
         style="fill:none;stroke:#000000;stroke-width:0.2;stroke-linecap:butt;stroke-linejoin:miter;stroke-miterlimit:10;stroke-opacity:1"
         id="path2979" />
      <path
         inkscape:connector-curvature="0"
         d="m 778.33051,-458.85039 c 0,1.86718 2.80078,1.86718 2.80078,0 0,-1.86719 -2.80078,-1.86719 -2.80078,0"
         style="fill:none;stroke:#ff0000;stroke-width:0.2;stroke-linecap:butt;stroke-linejoin:miter;stroke-miterlimit:10;stroke-opacity:1"
         id="path2981" />
      <path
         sodipodi:nodetypes="cc"
         inkscape:connector-curvature="0"
         d="m 788.06487,-450.41683 c -79.09441,0 -158.18883,0 -237.28324,0"
         style="fill:none;stroke:#000000;stroke-width:0.2;stroke-linecap:butt;stroke-linejoin:miter;stroke-miterlimit:10;stroke-opacity:1"
         id="path2983" />
      <path
         inkscape:connector-curvature="0"
         style="opacity:0.98999999;fill:none;fill-opacity:1;fill-rule:nonzero;stroke:#ff0000;stroke-width:0.1;stroke-miterlimit:4;stroke-dasharray:none;stroke-dashoffset:0;stroke-opacity:1"
         d="m 542.33377,-567.31271 a 2.979562,2.979562 0 0 1 -2.97916,-2.97915 2.979562,2.979562 0 0 1 1.06402,-2.28203 v -15.28743 a 2.979562,2.979562 0 0 1 -1.09759,-2.30787 2.979562,2.979562 0 0 1 2.97965,-2.97966 2.979562,2.979562 0 0 1 2.97966,2.97966 2.979562,2.979562 0 0 1 -0.95496,2.18126 v 15.48432 a 2.979562,2.979562 0 0 1 0.98804,2.21175 2.979562,2.979562 0 0 1 -2.97966,2.97915 z"
         id="path3145" />
      <g
         transform="translate(344.67475,2.6458334)"
         id="g4547">
        <ellipse
           ry="0.48058215"
           rx="0.48058218"
           cy="-585.78387"
           cx="415.97232"
           id="ellipse4534"
           style="fill:none;fill-opacity:1;stroke:#ff0000;stroke-width:0.0388357;stroke-miterlimit:4;stroke-dasharray:none;stroke-dashoffset:0;stroke-opacity:1" />
        <ellipse
           style="fill:none;fill-opacity:1;stroke:#ff0000;stroke-width:0.0388357;stroke-miterlimit:4;stroke-dasharray:none;stroke-dashoffset:0;stroke-opacity:1"
           id="ellipse4536"
           cx="423.84363"
           cy="-585.78387"
           rx="0.48058218"
           ry="0.48058215" />
      </g>
      <g
         id="g4604"
         transform="translate(263.18308,2.6458334)">
        <ellipse
           style="fill:none;fill-opacity:1;stroke:#ff0000;stroke-width:0.0388357;stroke-miterlimit:4;stroke-dasharray:none;stroke-dashoffset:0;stroke-opacity:1"
           id="ellipse4600"
           cx="415.97232"
           cy="-585.78387"
           rx="0.48058218"
           ry="0.48058215" />
        <ellipse
           ry="0.48058215"
           rx="0.48058218"
           cy="-585.78387"
           cx="423.84363"
           id="ellipse4602"
           style="fill:none;fill-opacity:1;stroke:#ff0000;stroke-width:0.0388357;stroke-miterlimit:4;stroke-dasharray:none;stroke-dashoffset:0;stroke-opacity:1" />
      </g>
      <g
         transform="translate(229.31639,2.6458334)"
         id="g4610">
        <ellipse
           ry="0.48058215"
           rx="0.48058218"
           cy="-585.78387"
           cx="415.97232"
           id="ellipse4606"
           style="fill:none;fill-opacity:1;stroke:#ff0000;stroke-width:0.0388357;stroke-miterlimit:4;stroke-dasharray:none;stroke-dashoffset:0;stroke-opacity:1" />
        <ellipse
           style="fill:none;fill-opacity:1;stroke:#ff0000;stroke-width:0.0388357;stroke-miterlimit:4;stroke-dasharray:none;stroke-dashoffset:0;stroke-opacity:1"
           id="ellipse4608"
           cx="423.84363"
           cy="-585.78387"
           rx="0.48058218"
           ry="0.48058215" />
      </g>
      <g
         id="g4616"
         transform="translate(147.95696,2.6458334)">
        <ellipse
           style="fill:none;fill-opacity:1;stroke:#ff0000;stroke-width:0.0388357;stroke-miterlimit:4;stroke-dasharray:none;stroke-dashoffset:0;stroke-opacity:1"
           id="ellipse4612"
           cx="415.97232"
           cy="-585.78387"
           rx="0.48058218"
           ry="0.48058215" />
        <ellipse
           ry="0.48058215"
           rx="0.48058218"
           cy="-585.78387"
           cx="423.84363"
           id="ellipse4614"
           style="fill:none;fill-opacity:1;stroke:#ff0000;stroke-width:0.0388357;stroke-miterlimit:4;stroke-dasharray:none;stroke-dashoffset:0;stroke-opacity:1" />
      </g>
      <g
         id="g4646"
         transform="translate(344.67475,83.7737)">
        <ellipse
           style="fill:none;fill-opacity:1;stroke:#ff0000;stroke-width:0.0388357;stroke-miterlimit:4;stroke-dasharray:none;stroke-dashoffset:0;stroke-opacity:1"
           id="ellipse4642"
           cx="415.97232"
           cy="-585.78387"
           rx="0.48058218"
           ry="0.48058215" />
        <ellipse
           ry="0.48058215"
           rx="0.48058218"
           cy="-585.78387"
           cx="423.84363"
           id="ellipse4644"
           style="fill:none;fill-opacity:1;stroke:#ff0000;stroke-width:0.0388357;stroke-miterlimit:4;stroke-dasharray:none;stroke-dashoffset:0;stroke-opacity:1" />
      </g>
      <g
         transform="translate(263.18308,83.7737)"
         id="g4654">
        <ellipse
           ry="0.48058215"
           rx="0.48058218"
           cy="-585.78387"
           cx="415.97232"
           id="ellipse4650"
           style="fill:none;fill-opacity:1;stroke:#ff0000;stroke-width:0.0388357;stroke-miterlimit:4;stroke-dasharray:none;stroke-dashoffset:0;stroke-opacity:1" />
        <ellipse
           style="fill:none;fill-opacity:1;stroke:#ff0000;stroke-width:0.0388357;stroke-miterlimit:4;stroke-dasharray:none;stroke-dashoffset:0;stroke-opacity:1"
           id="ellipse4652"
           cx="423.84363"
           cy="-585.78387"
           rx="0.48058218"
           ry="0.48058215" />
      </g>
      <g
         id="g4660"
         transform="translate(229.1381,83.7737)">
        <ellipse
           style="fill:none;fill-opacity:1;stroke:#ff0000;stroke-width:0.0388357;stroke-miterlimit:4;stroke-dasharray:none;stroke-dashoffset:0;stroke-opacity:1"
           id="ellipse4656"
           cx="415.97232"
           cy="-585.78387"
           rx="0.48058218"
           ry="0.48058215" />
        <ellipse
           ry="0.48058215"
           rx="0.48058218"
           cy="-585.78387"
           cx="423.84363"
           id="ellipse4658"
           style="fill:none;fill-opacity:1;stroke:#ff0000;stroke-width:0.0388357;stroke-miterlimit:4;stroke-dasharray:none;stroke-dashoffset:0;stroke-opacity:1" />
      </g>
      <g
         transform="translate(148.04323,83.7737)"
         id="g4666">
        <ellipse
           ry="0.48058215"
           rx="0.48058218"
           cy="-585.78387"
           cx="415.97232"
           id="ellipse4662"
           style="fill:none;fill-opacity:1;stroke:#ff0000;stroke-width:0.0388357;stroke-miterlimit:4;stroke-dasharray:none;stroke-dashoffset:0;stroke-opacity:1" />
        <ellipse
           style="fill:none;fill-opacity:1;stroke:#ff0000;stroke-width:0.0388357;stroke-miterlimit:4;stroke-dasharray:none;stroke-dashoffset:0;stroke-opacity:1"
           id="ellipse4664"
           cx="423.84363"
           cy="-585.78387"
           rx="0.48058218"
           ry="0.48058215" />
      </g>
      <g
         id="g4807"
         transform="translate(122.56906,5.5652486)">
        <ellipse
           style="fill:none;fill-opacity:1;stroke:#ff0000;stroke-width:0.0388357;stroke-miterlimit:4;stroke-dasharray:none;stroke-dashoffset:0;stroke-opacity:1"
           id="ellipse4803"
           cx="415.97232"
           cy="-585.78387"
           rx="0.48058218"
           ry="0.48058215" />
        <ellipse
           ry="0.48058215"
           rx="0.48058218"
           cy="-585.78387"
           cx="423.84363"
           id="ellipse4805"
           style="fill:none;fill-opacity:1;stroke:#ff0000;stroke-width:0.0388357;stroke-miterlimit:4;stroke-dasharray:none;stroke-dashoffset:0;stroke-opacity:1" />
      </g>
      <g
         id="g4813"
         transform="rotate(-90,552.9467,-756.92254)">
        <ellipse
           style="fill:none;fill-opacity:1;stroke:#ff0000;stroke-width:0.0388357;stroke-miterlimit:4;stroke-dasharray:none;stroke-dashoffset:0;stroke-opacity:1"
           id="ellipse4809"
           cx="415.97232"
           cy="-585.78387"
           rx="0.48058218"
           ry="0.48058215" />
        <ellipse
           ry="0.48058215"
           rx="0.48058218"
           cy="-585.78387"
           cx="423.84363"
           id="ellipse4811"
           style="fill:none;fill-opacity:1;stroke:#ff0000;stroke-width:0.0388357;stroke-miterlimit:4;stroke-dasharray:none;stroke-dashoffset:0;stroke-opacity:1" />
      </g>
      <g
         transform="rotate(-90,593.6594,-716.20984)"
         id="g4821">
        <ellipse
           ry="0.48058215"
           rx="0.48058218"
           cy="-585.78387"
           cx="415.97232"
           id="ellipse4817"
           style="fill:none;fill-opacity:1;stroke:#ff0000;stroke-width:0.0388357;stroke-miterlimit:4;stroke-dasharray:none;stroke-dashoffset:0;stroke-opacity:1" />
        <ellipse
           style="fill:none;fill-opacity:1;stroke:#ff0000;stroke-width:0.0388357;stroke-miterlimit:4;stroke-dasharray:none;stroke-dashoffset:0;stroke-opacity:1"
           id="ellipse4819"
           cx="423.84363"
           cy="-585.78387"
           rx="0.48058218"
           ry="0.48058215" />
      </g>
      <g
         id="g4827"
         transform="rotate(-90,634.14053,-675.72871)">
        <ellipse
           style="fill:none;fill-opacity:1;stroke:#ff0000;stroke-width:0.0388357;stroke-miterlimit:4;stroke-dasharray:none;stroke-dashoffset:0;stroke-opacity:1"
           id="ellipse4823"
           cx="415.97232"
           cy="-585.78387"
           rx="0.48058218"
           ry="0.48058215" />
        <ellipse
           ry="0.48058215"
           rx="0.48058218"
           cy="-585.78387"
           cx="423.84363"
           id="ellipse4825"
           style="fill:none;fill-opacity:1;stroke:#ff0000;stroke-width:0.0388357;stroke-miterlimit:4;stroke-dasharray:none;stroke-dashoffset:0;stroke-opacity:1" />
      </g>
      <g
         transform="rotate(-90,576.3138,-617.90198)"
         id="g4833">
        <ellipse
           ry="0.48058215"
           rx="0.48058218"
           cy="-585.78387"
           cx="415.97232"
           id="ellipse4829"
           style="fill:none;fill-opacity:1;stroke:#ff0000;stroke-width:0.0388357;stroke-miterlimit:4;stroke-dasharray:none;stroke-dashoffset:0;stroke-opacity:1" />
        <ellipse
           style="fill:none;fill-opacity:1;stroke:#ff0000;stroke-width:0.0388357;stroke-miterlimit:4;stroke-dasharray:none;stroke-dashoffset:0;stroke-opacity:1"
           id="ellipse4831"
           cx="423.84363"
           cy="-585.78387"
           rx="0.48058218"
           ry="0.48058215" />
      </g>
      <g
         id="g4947"
         transform="rotate(-90,535.84915,-658.36663)">
        <ellipse
           style="fill:none;fill-opacity:1;stroke:#ff0000;stroke-width:0.0388357;stroke-miterlimit:4;stroke-dasharray:none;stroke-dashoffset:0;stroke-opacity:1"
           id="ellipse4943"
           cx="415.97232"
           cy="-585.78387"
           rx="0.48058218"
           ry="0.48058215" />
        <ellipse
           ry="0.48058215"
           rx="0.48058218"
           cy="-585.78387"
           cx="423.84363"
           id="ellipse4945"
           style="fill:none;fill-opacity:1;stroke:#ff0000;stroke-width:0.0388357;stroke-miterlimit:4;stroke-dasharray:none;stroke-dashoffset:0;stroke-opacity:1" />
      </g>
      <g
         transform="rotate(-90,495.17355,-699.04223)"
         id="g4953">
        <ellipse
           ry="0.48058215"
           rx="0.48058218"
           cy="-585.78387"
           cx="415.97232"
           id="ellipse4949"
           style="fill:none;fill-opacity:1;stroke:#ff0000;stroke-width:0.0388357;stroke-miterlimit:4;stroke-dasharray:none;stroke-dashoffset:0;stroke-opacity:1" />
        <ellipse
           style="fill:none;fill-opacity:1;stroke:#ff0000;stroke-width:0.0388357;stroke-miterlimit:4;stroke-dasharray:none;stroke-dashoffset:0;stroke-opacity:1"
           id="ellipse4951"
           cx="423.84363"
           cy="-585.78387"
           rx="0.48058218"
           ry="0.48058215" />
      </g>
      <path
         id="path5219"
         style="fill:none;stroke:#ff0000;stroke-width:0.2;stroke-linecap:butt;stroke-linejoin:miter;stroke-miterlimit:10;stroke-opacity:1"
         d="m 667.5494,-624.78429 c 1.86719,0 1.86719,-2.80078 0,-2.80078 -1.86719,0 -1.86719,2.80078 0,2.80078"
         inkscape:connector-curvature="0" />
      <path
         inkscape:connector-curvature="0"
         d="m 542.1368,-624.78429 c 1.86719,0 1.86719,-2.80078 0,-2.80078 -1.86719,0 -1.86719,2.80078 0,2.80078"
         style="fill:none;stroke:#ff0000;stroke-width:0.2;stroke-linecap:butt;stroke-linejoin:miter;stroke-miterlimit:10;stroke-opacity:1"
         id="path5221" />
      <path
         id="path5233"
         style="fill:none;stroke:#ff0000;stroke-width:0.2;stroke-linecap:butt;stroke-linejoin:miter;stroke-miterlimit:10;stroke-opacity:1"
         d="m 667.5494,-457.47399 c 1.86719,0 1.86719,-2.80078 0,-2.80078 -1.86719,0 -1.86719,2.80078 0,2.80078"
         inkscape:connector-curvature="0" />
      <path
         inkscape:connector-curvature="0"
         d="m 556.42433,-457.47399 c 1.86719,0 1.86719,-2.80078 0,-2.80078 -1.86719,0 -1.86719,2.80078 0,2.80078"
         style="fill:none;stroke:#ff0000;stroke-width:0.2;stroke-linecap:butt;stroke-linejoin:miter;stroke-miterlimit:10;stroke-opacity:1"
         id="path5235" />
    </g>
  </g>
</svg>
